HIERARCHY
ROOT Hips
{
    OFFSET 0.000000 0.000000 0.000000
    CHANNELS 6 Xposition Yposition Zposition Zrotation Xrotation Yrotation
    JOINT Spine
    {
        OFFSET -0.000000 7.236184 0.000000
        CHANNELS 3 Zrotation Xrotation Yrotation
        JOINT Spine1
        {
            OFFSET -0.000000 20.420147 0.000000
            CHANNELS 3 Zrotation Xrotation Yrotation
            JOINT Neck
            {
                OFFSET -0.000000 20.336288 1.848754
                CHANNELS 3 Zrotation Xrotation Yrotation
                JOINT Head
                {
                    OFFSET -0.000000 12.354461 -1.764923
                    CHANNELS 3 Zrotation Xrotation Yrotation
                    End Site
                    {
                        OFFSET -0.000000 22.061537 0.000000
                    }
                }
            }
            JOINT LeftShoulder
            {
                OFFSET 3.573296 18.396038 -0.314103
                CHANNELS 3 Zrotation Xrotation Yrotation
                JOINT LeftArm
                {
                    OFFSET 10.880760 0.000000 0.000000
                    CHANNELS 3 Zrotation Xrotation Yrotation
                    JOINT LeftForeArm
                    {
                        OFFSET 27.185530 0.000000 0.000000
                        CHANNELS 3 Zrotation Xrotation Yrotation
                        JOINT LeftHand
                        {
                            OFFSET 27.825975 0.000000 0.000000
                            CHANNELS 3 Zrotation Xrotation Yrotation
                            End Site
                            {
                                OFFSET 13.236923 0.000000 0.000000
                            }
                        }
                    }
                }
            }
            JOINT RightShoulder
            {
                OFFSET -3.474926 18.396038 -0.314103
                CHANNELS 3 Zrotation Xrotation Yrotation
                JOINT RightArm
                {
                    OFFSET -10.880760 0.000000 0.000000
                    CHANNELS 3 Zrotation Xrotation Yrotation
                    JOINT RightForeArm
                    {
                        OFFSET -27.185530 0.000000 0.000000
                        CHANNELS 3 Zrotation Xrotation Yrotation
                        JOINT RightHand
                        {
                            OFFSET -27.825975 0.000000 0.000000
                            CHANNELS 3 Zrotation Xrotation Yrotation
                            End Site
                            {
                                OFFSET -13.236923 0.000000 0.000000
                            }
                        }
                    }
                }
            }
        }
    }
    JOINT LeftUpLeg
    {
        OFFSET 8.824615 0.000000 0.000000
        CHANNELS 3 Zrotation Xrotation Yrotation
        JOINT LeftLeg
        {
            OFFSET -0.000000 -35.111282 0.000000
            CHANNELS 3 Zrotation Xrotation Yrotation
            JOINT LeftFoot
            {
                OFFSET -0.000000 -42.324711 0.000000
                CHANNELS 3 Zrotation Xrotation Yrotation
                JOINT LeftToeBase
                {
                    OFFSET -0.000000 -5.735999 13.236923
                    CHANNELS 3 Zrotation Xrotation Yrotation
                    End Site
                    {
                        OFFSET -0.000000 0.000000 3.529846
                    }
                }
            }
        }
    }
    JOINT RightUpLeg
    {
        OFFSET -8.824615 0.000000 0.000000
        CHANNELS 3 Zrotation Xrotation Yrotation
        JOINT RightLeg
        {
            OFFSET -0.000000 -35.111282 0.000000
            CHANNELS 3 Zrotation Xrotation Yrotation
            JOINT RightFoot
            {
                OFFSET -0.000000 -42.324711 0.000000
                CHANNELS 3 Zrotation Xrotation Yrotation
                JOINT RightToeBase
                {
                    OFFSET -0.000000 -5.735999 13.236923
                    CHANNELS 3 Zrotation Xrotation Yrotation
                    End Site
                    {
                        OFFSET -0.000000 0.000000 3.529846
                    }
                }
            }
        }
    }
}
MOTION
Frames:    4
Frame Time:    0.008333
-5.993757    83.637405    109.544327    1.320881    -36.309353    -172.342590    -2.952889    8.201612    1.297709    -0.262749    16.505102    1.124094    4.173629    17.499960    -4.233761    5.152430    10.546486    -4.097400    1.024230    17.793238    -5.370484    -47.225391    44.338825    -34.345406    0.176561    -11.598740    -15.558979    26.337305    -10.705383    3.787134    3.892894    16.692518    -1.008186    24.963671    51.717609    49.243008    -20.726278    -20.850180    90.615204    0.823784    0.085262    -2.250643    -1.898257    -38.632492    -9.528136    -0.656012    2.784675    -0.189530    -0.429874    2.330039    -7.437124    -0.040632    0.670986    0.044986    -7.301788    -31.866234    2.265640    2.696096    -6.393378    -2.493490    0.401193    3.925880    -11.236032    -0.551526    1.525675    0.595287
-5.994580    83.631203    109.513840    1.350286    -36.192680    -172.323532    -2.903446    7.880418    1.288231    -0.265455    16.526432    1.126809    4.167469    17.480209    -4.227049    5.143764    10.547963    -4.091758    1.005976    17.776722    -5.384164    -47.207577    44.288246    -34.356499    0.172222    -11.557129    -15.536441    26.138906    -10.670771    3.788409    3.921891    16.721306    -1.019393    25.166481    51.606159    49.041832    -20.389145    -20.808672    90.638084    0.938443    -0.229646    -2.419259    -1.808291    -38.493195    -9.416309    -0.713170    2.760522    -0.261886    -0.434297    2.322479    -7.432807    -0.026171    0.684065    0.028974    -7.263800    -31.733025    2.239279    2.716072    -6.382667    -2.520859    0.407643    3.860202    -11.169925    -0.562761    1.534124    0.607406
-5.995127    83.624451    109.482361    1.379702    -36.075512    -172.303284    -2.856304    7.536298    1.279235    -0.266863    16.539896    1.129895    4.165976    17.457901    -4.223242    5.128562    10.542492    -4.089203    0.985859    17.762911    -5.398092    -47.190834    44.232162    -34.364323    0.164209    -11.504356    -15.510596    25.919827    -10.626373    3.788775    3.955444    16.752323    -1.035303    25.398972    51.478554    48.813946    -20.007492    -20.756149    90.667427    1.058551    -0.578669    -2.613964    -1.718412    -38.357513    -9.295731    -0.772117    2.744738    -0.340814    -0.440505    2.311769    -7.430990    -0.010224    0.696283    0.011319    -7.227174    -31.604853    2.207701    2.738583    -6.360769    -2.552330    0.412974    3.790175    -11.096556    -0.573071    1.540191    0.618530
-5.995327    83.617119    109.449577    1.409630    -35.957359    -172.281464    -2.811395    7.168278    1.270609    -0.266709    16.543854    1.133270    4.169994    17.431753    -4.223106    5.105046    10.528598    -4.090629    0.963661    17.751455    -5.412132    -47.176128    44.170231    -34.367310    0.152068    -11.439286    -15.481853    25.677717    -10.571108    3.788515    3.994030    16.785454    -1.056696    25.664009    51.333027    48.556602    -19.578386    -20.694275    90.702492    1.190529    -0.966830    -2.837916    -1.628436    -38.225365    -9.165668    -0.832446    2.738332    -0.427228    -0.448706    2.297343    -7.431677    0.006985    0.708213    -0.007732    -7.191106    -31.481945    2.170962    2.763578    -6.326050    -2.588344    0.416307    3.715425    -11.015396    -0.582022    1.543271    0.628188
